<?xml version="1.0" standalone="no"?><!DOCTYPE svg PUBLIC "-//W3C//DTD SVG 1.1//EN" "http://www.w3.org/Graphics/SVG/1.1/DTD/svg11.dtd"><svg t="1634713147036" class="icon" viewBox="0 0 1024 1024" version="1.1" xmlns="http://www.w3.org/2000/svg" p-id="10028" xmlns:xlink="http://www.w3.org/1999/xlink" width="200" height="200"><defs><style type="text/css"></style></defs><path d="M682.666667 42.666667a42.666667 42.666667 0 0 1 42.368 37.674666L725.333333 85.333333v21.333334h149.333334a85.333333 85.333333 0 0 1 85.12 78.933333l0.213333 6.4V853.333333a85.333333 85.333333 0 0 1-85.333333 85.333334h-725.333334a85.333333 85.333333 0 0 1-85.333333-85.333334V192a85.333333 85.333333 0 0 1 85.333333-85.333333H298.666667V85.333333a42.666667 42.666667 0 0 1 85.034666-4.992L384 85.333333v21.333334h256V85.333333a42.666667 42.666667 0 0 1 42.666667-42.666666z m192 405.333333h-725.333334V853.333333h725.333334v-405.333333zM725.333333 682.666667a42.666667 42.666667 0 0 1 4.992 85.034666L725.333333 768h-128a42.666667 42.666667 0 0 1-4.992-85.034667L597.333333 682.666667h128z m-298.666666 0a42.666667 42.666667 0 0 1 4.992 85.034666L426.666667 768H298.666667a42.666667 42.666667 0 0 1-4.992-85.034667L298.666667 682.666667h128z m298.666666-170.666667a42.666667 42.666667 0 0 1 4.992 85.034667L725.333333 597.333333h-128a42.666667 42.666667 0 0 1-4.992-85.034666L597.333333 512h128z m-298.666666 0a42.666667 42.666667 0 0 1 4.992 85.034667L426.666667 597.333333H298.666667a42.666667 42.666667 0 0 1-4.992-85.034666L298.666667 512h128zM298.666667 192H149.333333v170.666667h725.333334v-170.666667H725.333333V256a42.666667 42.666667 0 0 1-85.034666 4.992L640 256V192H384V256a42.666667 42.666667 0 0 1-85.034667 4.992L298.666667 256V192z" p-id="10029" fill="#1296db"></path></svg>