<?xml version="1.0" encoding="UTF-8"?>
<svg width="24px" height="24px" viewBox="0 0 24 24" version="1.1" xmlns="http://www.w3.org/2000/svg" xmlns:xlink="http://www.w3.org/1999/xlink">
    <title>场景</title>
    <g id="场景" stroke="none" stroke-width="1" fill="none" fill-rule="evenodd">
        <rect id="矩形" x="0" y="0" width="24" height="24"></rect>
        <g id="多维数据集" fill-rule="nonzero">
            <rect id="矩形" x="0" y="0" width="24" height="24"></rect>
            <path d="M12.3695734,1.07078305 L12.4856318,1.12583654 L21.4856318,6.12568654 C21.7678286,6.28245784 21.9547566,6.56427119 21.9928122,6.88002802 L22,6.99985 C22,7.40813396 21.777324,7.78391548 21.419202,7.97998792 L12.474588,12.8771797 L12.474588,12.8771797 C12.2126945,13.0205384 11.9026578,13.0383947 11.6287788,12.9307679 L11.5138617,12.8769596 L2.56350485,7.95300678 C2.21593374,7.76179387 2,7.39654643 2,6.99985 L2,6.99985 L2,6.99985 C2,6.67703072 2.15557277,6.3767676 2.41311482,6.1901592 L2.5143682,6.12568654 L11.5143682,1.12583654 C11.7408808,1 12.0040758,0.968540865 12.2489296,1.03145913 L12.3695734,1.07078305 Z M12,3.144 L5.005,7.029 L11.993,10.86 L18.993,7.028 L12,3.144 Z" id="形状" fill="#C68DFC"></path>
            <path d="M20.5553017,11.1858053 C21.0397547,10.9206191 21.6474573,11.0983699 21.9126436,11.5828229 C22.1588879,12.0326721 22.0232121,12.5887927 21.6146933,12.8782663 L21.515626,12.9401648 L12.474588,17.8771797 C12.2126945,18.0205384 11.9026578,18.0383947 11.6287788,17.9307679 L11.5138617,17.8769596 L2.54842949,12.9401648 C2.06409809,12.6747565 1.88662581,12.0669725 2.15203407,11.5826411 C2.39848459,11.1329048 2.94014691,10.9477562 3.40405267,11.1361017 L3.50955779,11.1862456 L11.993,15.86 L20.5553017,11.1858053 Z" id="路径" fill="#C68DFC"></path>
            <path d="M20.5553017,16.1858053 C21.0397547,15.9206191 21.6474573,16.0983699 21.9126436,16.5828229 C22.1588879,17.0326721 22.0232121,17.5887927 21.6146933,17.8782663 L21.515626,17.9401648 L12.474588,22.8771797 C12.2126945,23.0205384 11.9026578,23.0383947 11.6287788,22.9307679 L11.5138617,22.8769596 L2.54842949,17.9401648 C2.06409809,17.6747565 1.88662581,17.0669725 2.15203407,16.5826411 C2.39848459,16.1329048 2.94014691,15.9477562 3.40405267,16.1361017 L3.50955779,16.1862456 L11.993,20.86 L20.5553017,16.1858053 Z" id="路径" fill="#C68DFC"></path>
        </g>
    </g>
</svg>