<?xml version="1.0" encoding="UTF-8"?>
<svg width="15px" height="14px" viewBox="0 0 15 14" version="1.1" xmlns="http://www.w3.org/2000/svg" xmlns:xlink="http://www.w3.org/1999/xlink">
    <title>yn_cookbook_common_folder备份 4</title>
    <g id="20220808新旧版本icon统一" stroke="none" stroke-width="1" fill="none" fill-rule="evenodd">
        <g id="旧页面" transform="translate(-48.000000, -281.000000)">
            <g id="编组-6" transform="translate(0.000000, 100.000000)">
                <g id="yn_cookbook_common_folder备份-8" transform="translate(48.000000, 180.000000)">
                    <rect id="矩形" x="0" y="0" width="16" height="16"></rect>
                    <path d="M5.54216674,1.33333333 C6.13572642,1.33333333 6.69862165,1.59697935 7.0786093,2.05296453 L7.0786093,2.05296453 L8.1455833,3.33333333 L13.6666667,3.33333333 C14.4030565,3.33333333 15,3.93027683 15,4.66666667 L15,4.66666667 L15,13.3333333 C15,14.0697232 14.4030565,14.6666667 13.6666667,14.6666667 L13.6666667,14.6666667 L2.16666667,14.6666667 C1.43028493,14.6666667 0.833333333,14.0697213 0.833333333,13.3333333 L0.833333333,13.3333333 L0.833333333,2.66666667 C0.833333333,1.93028683 1.43028683,1.33333333 2.16666667,1.33333333 L2.16666667,1.33333333 Z M13.6663333,7.99933333 L2.16633333,7.99933333 L2.16666667,13.3333333 L13.6666667,13.3333333 L13.6663333,7.99933333 Z M13.6666667,4.66666667 L8.1455833,4.66666667 C7.74987684,4.66666667 7.37461336,4.49090265 7.12128826,4.18691253 L7.12128826,4.18691253 L6.05431426,2.90654373 C5.92765171,2.75454867 5.74001997,2.66666667 5.54216674,2.66666667 L5.54216674,2.66666667 L2.16666667,2.66666667 L2.16633333,6.66633333 L13.6663333,6.66633333 L13.6666667,4.66666667 Z" id="形状结合" fill="#747CFB" fill-rule="nonzero"></path>
                </g>
            </g>
        </g>
    </g>
</svg>