<?xml version="1.0" encoding="UTF-8"?>
<svg width="24px" height="24px" viewBox="0 0 24 24" version="1.1" xmlns="http://www.w3.org/2000/svg" xmlns:xlink="http://www.w3.org/1999/xlink">
    <title>表单</title>
    <g id="表单" stroke="none" stroke-width="1" fill="none" fill-rule="evenodd">
        <rect id="矩形" x="0" y="0" width="24" height="24"></rect>
        <g id="L1-Expenseclaim-MyApplication" transform="translate(1.500000, 0.316341)" fill="#2BB291" fill-rule="nonzero">
            <path d="M10.9633308,0.731937475 C10.9876638,0.81929983 11,0.909566184 11,1.00025399 L11,2.683 L19,2.683659 C20.1045695,2.683659 21,3.5790895 21,4.683659 L21,18.683659 C21,19.7882285 20.1045695,20.683659 19,20.683659 L11,20.683 L11,22.367064 C11,22.9193488 10.5522847,23.367064 10,23.367064 C9.9093122,23.367064 9.81904584,23.3547279 9.73168349,23.3303948 L1.46336698,21.0274208 C0.598394794,20.7865001 0,19.9986565 0,19.1007592 L0,4.26655884 C0,3.36866148 0.598394794,2.5808179 1.46336698,2.33989722 L9.73168349,0.036923177 C10.2637164,-0.111263941 10.8151437,0.19990456 10.9633308,0.731937475 Z M9,2.315659 L2,4.26655884 L2,19.1007592 L9,21.050659 L9,2.315659 Z M11,7.183 L12.1818182,7.183659 C12.7089991,7.183659 13.1363636,7.61102356 13.1363636,8.13820446 C13.1363636,8.66538536 12.7089991,9.09274991 12.1818182,9.09274991 L11,9.092 L11,11.274 L12.1818182,11.2745681 C12.7089991,11.2745681 13.1363636,11.7019327 13.1363636,12.2291135 C13.1363636,12.7562944 12.7089991,13.183659 12.1818182,13.183659 L11,13.183 L11,15.365 L12.1818182,15.3654772 C12.7089991,15.3654772 13.1363636,15.7928417 13.1363636,16.3200226 C13.1363636,16.8472035 12.7089991,17.2745681 12.1818182,17.2745681 L11,17.274 L11,18.683 L19,18.683659 L19,4.683659 L11,4.683 L11,7.183 Z M17.1818182,15.3654772 C17.7089991,15.3654772 18.1363636,15.7928417 18.1363636,16.3200226 C18.1363636,16.8472035 17.7089991,17.2745681 17.1818182,17.2745681 L15.7272727,17.2745681 C15.2000918,17.2745681 14.7727273,16.8472035 14.7727273,16.3200226 C14.7727273,15.7928417 15.2000918,15.3654772 15.7272727,15.3654772 L17.1818182,15.3654772 Z M17.1818182,11.2745681 C17.7089991,11.2745681 18.1363636,11.7019327 18.1363636,12.2291135 C18.1363636,12.7562944 17.7089991,13.183659 17.1818182,13.183659 L15.7272727,13.183659 C15.2000918,13.183659 14.7727273,12.7562944 14.7727273,12.2291135 C14.7727273,11.7019327 15.2000918,11.2745681 15.7272727,11.2745681 L17.1818182,11.2745681 Z M17.1818182,7.183659 C17.7089991,7.183659 18.1363636,7.61102356 18.1363636,8.13820446 C18.1363636,8.66538536 17.7089991,9.09274991 17.1818182,9.09274991 L15.7272727,9.09274991 C15.2000918,9.09274991 14.7727273,8.66538536 14.7727273,8.13820446 C14.7727273,7.61102356 15.2000918,7.183659 15.7272727,7.183659 L17.1818182,7.183659 Z" id="形状结合"></path>
        </g>
    </g>
</svg>